<svg width="256" height="256" viewBox="0 0 256 256" fill="none" xmlns="http://www.w3.org/2000/svg" role="img" aria-label="Cyvora mark">
  <defs>
    <linearGradient id="base" x1="34" y1="28" x2="222" y2="228" gradientUnits="userSpaceOnUse">
      <stop stop-color="#122033"/>
      <stop offset="1" stop-color="#0a1220"/>
    </linearGradient>
    <linearGradient id="edge" x1="48" y1="44" x2="208" y2="212" gradientUnits="userSpaceOnUse">
      <stop stop-color="#d9e6ff" stop-opacity="0.22"/>
      <stop offset="1" stop-color="#6ea6ff" stop-opacity="0.14"/>
    </linearGradient>
    <linearGradient id="glyph" x1="82" y1="76" x2="176" y2="180" gradientUnits="userSpaceOnUse">
      <stop stop-color="#f4f8ff"/>
      <stop offset="1" stop-color="#8ddfff"/>
    </linearGradient>
    <linearGradient id="accent" x1="102" y1="100" x2="154" y2="156" gradientUnits="userSpaceOnUse">
      <stop stop-color="#a39dff"/>
      <stop offset="1" stop-color="#f4d487"/>
    </linearGradient>
  </defs>
  <rect x="16" y="16" width="224" height="224" rx="58" fill="url(#base)"/>
  <rect x="18" y="18" width="220" height="220" rx="56" fill="none" stroke="rgba(255,255,255,0.08)" stroke-width="2"/>
  <path d="M52 110C52 77.9675 77.9675 52 110 52H146C178.033 52 204 77.9675 204 110V146C204 178.033 178.033 204 146 204H110C77.9675 204 52 178.033 52 146V110Z" fill="url(#edge)"/>
  <circle cx="128" cy="128" r="62" fill="#0f1828" stroke="rgba(255,255,255,0.08)" stroke-width="2"/>
  <path d="M168 96C157.5 84.5 143.6 78 128 78C98.653 78 75 101.653 75 131C75 160.347 98.653 184 128 184C143.6 184 157.5 177.5 168 166" stroke="url(#glyph)" stroke-width="16" stroke-linecap="round"/>
  <path d="M102 100L128 156L154 100" stroke="url(#glyph)" stroke-width="16" stroke-linecap="round" stroke-linejoin="round"/>
  <circle cx="176" cy="78" r="8" fill="url(#accent)"/>
  <circle cx="80" cy="178" r="6.5" fill="#8ddfff"/>
  <path d="M112 130H144" stroke="url(#accent)" stroke-width="10" stroke-linecap="round"/>
</svg>
